<svg version="1.1" id="Layer_1" xmlns="http://www.w3.org/2000/svg" xmlns:xlink="http://www.w3.org/1999/xlink" x="0px" y="0px"
	 width="100%" viewBox="0 0 1024 1024" enable-background="new 0 0 1024 1024" xml:space="preserve">
<path fill="#000000" opacity="1.000000" stroke="none" 
	d="
M614.099976,520.768311 
	C614.624268,521.224609 615.086853,521.766113 614.963196,522.065857 
	C609.700623,534.825195 603.208191,546.837158 591.867859,555.268494 
	C580.466187,563.745422 567.835510,565.041321 554.432983,560.577271 
	C538.783203,555.364868 526.723022,544.841003 515.035950,533.888123 
	C499.833374,519.640625 484.891632,505.172760 466.668640,494.606110 
	C448.744751,484.212860 429.612732,477.935608 408.903168,477.434509 
	C390.275818,476.983765 373.076630,482.253723 357.463715,492.520111 
	C356.547028,493.122925 355.827301,494.256653 354.402557,493.802704 
	C353.519897,492.227509 354.883881,491.336548 355.584747,490.364166 
	C370.796936,469.259033 391.746826,458.050385 417.235382,454.645782 
	C426.196198,453.448822 435.139221,453.186432 444.098938,454.576263 
	C446.377472,454.929688 448.254822,454.307770 449.979004,452.625031 
	C473.886444,429.292450 505.234741,429.228241 532.751465,445.377350 
	C535.593140,447.045044 538.398499,448.774506 542.065552,450.984436 
	C547.681580,436.293671 557.253113,428.597687 573.693726,429.472809 
	C590.850952,430.386047 595.755371,442.980835 601.706238,457.201233 
	C617.568726,428.283264 633.689087,401.724487 656.703186,379.996765 
	C652.914368,375.654053 647.464661,374.998993 643.918457,371.559662 
	C645.000366,369.191162 647.153870,369.793488 648.795837,369.450958 
	C665.080872,366.053436 681.393555,362.788025 697.676941,359.382782 
	C700.380249,358.817444 702.556335,358.640106 702.139648,362.303070 
	C700.429626,377.336212 698.642090,392.360565 696.837524,407.382690 
	C696.723267,408.334106 696.221863,409.239014 695.601685,411.027435 
	C691.729736,406.977692 688.260071,403.348724 684.579041,399.498657 
	C675.856079,407.078674 668.575195,415.451691 661.738342,424.254852 
	C653.336365,435.073395 645.355286,446.325287 639.675049,458.692719 
	C634.389160,470.201355 625.287231,474.667572 614.185486,477.024109 
	C605.204895,478.930359 596.345337,477.759064 587.542908,475.375397 
	C581.963135,473.864441 578.167969,470.784302 576.021362,465.358490 
	C574.884216,462.484131 574.044556,459.348328 571.419800,456.743256 
	C568.103882,459.419586 567.081177,463.332611 565.558228,466.845642 
	C564.725891,468.765503 566.601929,469.803070 567.924316,470.773743 
	C588.944763,486.203613 610.906006,490.496460 634.407959,476.338867 
	C635.111328,475.915192 635.818054,475.406677 636.955994,476.251953 
	C636.888672,478.990692 635.255676,481.335449 634.056458,483.786835 
	C630.023254,492.031006 625.640930,500.034454 619.223022,506.777008 
	C607.312317,519.290222 593.067078,522.396484 576.763428,517.725830 
	C562.570496,513.659912 551.558167,504.437531 540.439514,495.378998 
	C527.406311,484.760590 515.289917,472.980621 500.890533,464.092072 
	C488.252258,456.290680 474.782654,451.613953 459.657501,453.252411 
	C458.664825,453.359985 457.652100,453.365814 456.681274,453.572052 
	C455.266357,453.872589 453.881012,454.312256 451.393127,454.989105 
	C454.740143,455.887573 457.050446,456.550995 459.382294,457.127075 
	C485.746338,463.640228 507.983643,477.509583 528.187134,495.227173 
	C538.315186,504.109100 548.053040,513.528503 559.626892,520.639648 
	C576.883850,531.242615 594.316528,532.235352 611.954102,521.554626 
	C612.515930,521.214417 613.159363,521.009094 614.099976,520.768311 
z"/>
<path fill="#000000" opacity="1.000000" stroke="none" 
	d="
M509.999573,355.950684 
	C496.889160,356.357635 484.137970,354.700867 471.743988,358.329529 
	C460.078979,361.744812 450.004883,367.563110 443.088226,377.937683 
	C442.091370,379.432953 440.837128,380.836700 440.638397,383.762085 
	C466.558197,385.446991 492.502563,384.064880 518.394592,384.844330 
	C516.907288,405.957001 498.575684,422.943695 477.409515,423.144348 
	C461.747864,423.292847 446.080933,423.245636 430.421082,422.991974 
	C425.967529,422.919830 423.670624,424.185211 423.001556,428.821716 
	C422.244019,434.071259 420.617218,439.179413 420.131165,444.504822 
	C419.935730,446.645966 419.653778,448.957947 416.722687,449.258881 
	C404.465363,450.517212 393.021576,454.377319 382.135468,460.044159 
	C381.594574,460.325745 380.887482,460.288116 380.080322,460.430328 
	C378.058319,456.950500 379.501953,453.394958 379.824493,450.130493 
	C382.675507,421.272583 388.649414,393.256866 403.369415,367.775116 
	C420.127014,338.766144 445.723877,322.658813 478.363342,317.862061 
	C497.664825,315.025482 517.239685,316.010376 536.723145,316.350037 
	C545.540222,316.503784 554.365173,316.183838 563.186829,316.129517 
	C565.158691,316.117371 567.203918,315.797638 569.642334,317.271271 
	C568.838379,322.651123 566.373474,327.698486 564.026794,332.714417 
	C557.479614,346.708282 546.755249,354.842621 530.973206,355.455902 
	C524.152466,355.720978 517.324280,355.790955 509.999573,355.950684 
z"/>
<path fill="#000000" opacity="1.000000" stroke="none" 
	d="
M333.964417,450.705536 
	C328.698975,363.626495 384.040070,292.330536 454.716583,269.416626 
	C521.615540,247.727402 582.128357,260.882233 634.856934,307.857513 
	C649.814514,321.183044 661.488159,337.105225 670.986023,354.701141 
	C672.943054,358.326843 672.666260,360.041534 668.232971,360.617706 
	C664.456726,361.108429 660.697510,361.999817 657.044006,363.092560 
	C653.058594,364.284607 650.779053,363.150726 648.565491,359.518860 
	C624.778687,320.490997 590.918213,294.759644 546.120239,284.992981 
	C501.335999,275.229340 459.631927,283.996704 422.316376,310.577301 
	C384.730957,337.350098 363.000610,374.230499 356.542358,419.910217 
	C354.122986,437.022766 355.215302,454.130737 359.108459,470.966034 
	C360.111298,475.302551 359.548798,478.348816 356.350586,481.649445 
	C352.022064,486.116669 348.431824,491.299286 343.781708,497.102417 
	C337.629974,481.655609 335.628876,466.458893 333.964417,450.705536 
z"/>
<path fill="#000000" opacity="1.000000" stroke="none" 
	d="
M669.783447,445.878845 
	C669.758789,439.231171 670.058777,433.040588 669.553345,426.916473 
	C669.244873,423.178650 670.314758,420.580658 672.880615,418.119202 
	C676.122131,415.009552 679.150696,411.678833 682.300232,408.472015 
	C684.247864,406.488922 685.809875,406.838898 687.679199,408.921906 
	C690.763123,412.358398 690.780823,416.650513 691.157837,420.671387 
	C699.898499,513.885132 637.672363,596.844543 545.507263,614.294678 
	C498.163910,623.258484 454.265320,613.739319 413.896362,587.494080 
	C410.440460,585.247375 409.563965,583.038696 411.307800,579.271362 
	C413.401398,574.748230 415.017822,570.005005 416.881317,565.373291 
	C417.052429,564.948059 417.516510,564.640625 417.836182,564.287720 
	C419.821625,563.897522 420.946472,565.340942 422.239563,566.273682 
	C450.798676,586.874390 482.857697,597.315308 517.854004,595.427246 
	C576.208984,592.278992 620.608948,564.905579 650.173218,514.296021 
	C662.387268,493.387482 668.708008,470.586456 669.783447,445.878845 
z"/>
<path fill="#000000" opacity="1.000000" stroke="none" 
	d="
M608.596069,712.303101 
	C603.568176,696.946472 598.627930,681.976196 593.578125,666.673828 
	C598.644958,664.958191 603.278320,665.760132 607.816467,665.859680 
	C610.364136,665.915527 610.565674,668.481567 611.158936,670.296875 
	C614.674194,681.054016 618.073792,691.849060 621.604248,702.601135 
	C622.151184,704.266907 622.167297,706.238586 624.211365,707.837952 
	C628.230286,695.847778 632.181030,684.081116 636.117065,672.309631 
	C638.093323,666.399109 645.263672,663.363281 651.047791,666.001648 
	C652.821289,666.810608 652.979248,668.547791 653.501282,670.109680 
	C657.658325,682.547424 661.839539,694.977173 666.271057,708.177002 
	C669.061768,703.005432 670.108521,698.139343 671.698242,693.487732 
	C674.335815,685.770203 677.061829,678.074219 679.368835,670.256470 
	C680.423889,666.681152 682.310120,665.425476 685.846802,665.674927 
	C688.800842,665.883118 691.781128,665.717590 694.374512,665.717590 
	C695.844543,667.405212 695.270996,668.678101 694.868958,669.922668 
	C688.729919,688.924866 682.519165,707.904297 676.502075,726.944885 
	C675.531189,730.017395 674.005798,731.267273 670.817139,731.208679 
	C656.531006,730.946350 659.520935,732.640869 655.355347,720.318237 
	C652.068909,710.596436 648.910461,700.831238 644.501587,691.021973 
	C642.481628,696.902832 640.428528,702.772644 638.450867,708.667664 
	C636.386536,714.820862 634.257812,720.958191 632.431702,727.182922 
	C631.569519,730.121765 629.928101,731.172668 627.017578,731.143616 
	C611.675049,730.990601 615.576904,732.669312 610.919922,719.827820 
	C610.070618,717.486023 609.423950,715.070801 608.596069,712.303101 
z"/>
<path fill="#000000" opacity="1.000000" stroke="none" 
	d="
M387.174927,497.728577 
	C395.477844,497.718262 403.306244,497.800385 411.130341,497.652710 
	C414.253937,497.593781 415.919678,498.443481 416.659271,501.818512 
	C418.869110,511.903015 421.862701,521.778137 426.316650,531.133179 
	C427.361633,533.328125 426.735474,534.785767 425.323669,536.498840 
	C415.101471,548.902344 408.407532,563.107605 404.130035,578.521484 
	C403.324158,581.425354 403.305542,581.441406 400.651886,583.553772 
	C398.485016,582.273621 399.061127,580.112671 399.082825,578.231873 
	C399.232697,565.255066 399.504700,552.279358 399.595917,539.302368 
	C399.612579,536.933044 400.405273,535.217896 402.010864,533.585205 
	C404.322327,531.234680 403.996857,528.656555 401.738586,526.556946 
	C399.688538,524.651001 397.058807,524.417847 394.940094,526.347717 
	C392.694611,528.393066 392.283936,531.335815 394.450409,533.477905 
	C397.039703,536.038025 397.216003,538.921143 397.216522,542.135376 
	C397.218475,554.125000 397.329071,566.114563 397.331818,578.104187 
	C397.332214,579.859131 397.865112,581.785034 396.347809,583.377808 
	C393.748047,583.795959 393.360352,581.699219 392.927551,580.059753 
	C388.698975,564.041748 381.238342,549.671509 370.934296,536.758972 
	C369.376953,534.807373 369.226624,533.233887 370.382904,530.925964 
	C374.726807,522.255310 377.672119,513.032776 379.497650,503.546936 
	C380.358978,499.071289 382.134705,497.004486 387.174927,497.728577 
z"/>
<path fill="#000000" opacity="1.000000" stroke="none" 
	d="
M333.752411,679.240906 
	C324.954895,679.267029 316.632202,679.379272 308.314606,679.222290 
	C304.806244,679.156067 303.161438,680.118042 303.252716,683.989441 
	C303.551697,696.668701 301.934967,694.514160 313.745392,694.718262 
	C318.736420,694.804565 323.735779,694.892456 328.720642,694.700439 
	C332.951935,694.537354 333.310883,697.181030 333.092804,700.224487 
	C332.865479,703.397156 334.600922,707.881592 328.870392,707.980042 
	C322.049866,708.097290 315.221832,708.137512 308.404572,707.944885 
	C304.523102,707.835266 303.004303,709.284668 303.210327,713.200195 
	C303.454803,717.846985 303.199432,722.517944 303.300385,727.175354 
	C303.364166,730.119873 302.169189,731.371643 299.166229,731.347656 
	C285.146973,731.235657 287.821289,732.411011 287.708954,720.569214 
	C287.554291,704.262085 287.775879,687.951233 287.592804,671.644714 
	C287.546051,667.479492 288.561584,665.641724 293.134277,665.725159 
	C305.943604,665.958984 318.760590,665.749084 331.574219,665.797485 
	C333.755402,665.805725 337.144440,665.113525 336.930084,668.489197 
	C336.700806,672.099304 340.099182,676.963013 333.752411,679.240906 
z"/>
<path fill="#000000" opacity="1.000000" stroke="none" 
	d="
M458.095703,678.726746 
	C474.934418,679.069580 485.544800,689.920288 485.357208,705.838867 
	C485.312988,709.591858 484.005341,710.638550 480.320953,710.550232 
	C470.048981,710.303833 459.767273,710.464600 449.453857,710.464600 
	C450.027374,716.387146 456.200287,720.403137 462.707794,719.407837 
	C465.858032,718.925903 468.738800,717.697266 471.540405,716.145996 
	C477.041718,713.099792 478.173126,718.930359 480.673248,721.232544 
	C483.355011,723.702087 480.110474,725.242798 478.414032,726.536011 
	C466.985291,735.247864 447.434509,733.509277 438.809082,723.036499 
	C431.806000,714.533508 430.731232,704.907227 434.559204,694.924561 
	C438.532349,684.563293 446.717773,679.528687 458.095703,678.726746 
M453.911499,700.746338 
	C458.211731,700.721313 462.512360,700.725464 466.812012,700.661072 
	C469.734650,700.617371 470.144043,699.153198 468.959412,696.754517 
	C467.104767,692.998901 461.655975,690.366394 457.058258,691.504211 
	C452.683533,692.586853 449.383881,695.003296 448.941864,699.901672 
	C450.387390,700.985229 451.758545,700.612488 453.911499,700.746338 
z"/>
<path fill="#000000" opacity="1.000000" stroke="none" 
	d="
M547.168091,722.913757 
	C546.773010,725.894836 548.483398,729.562195 545.468994,730.597839 
	C541.444275,731.980713 536.908752,731.689819 532.710693,730.622437 
	C530.873718,730.155334 531.071411,727.903931 531.082886,726.269775 
	C531.129761,719.618530 531.352783,712.967224 531.320984,706.316895 
	C531.296875,701.261536 531.098938,696.067505 525.506775,693.598877 
	C518.229126,690.386475 510.751465,695.003296 510.277283,703.280273 
	C509.859314,710.576599 509.929688,717.916748 510.140503,725.227356 
	C510.272156,729.793518 508.551422,731.336670 504.000763,731.239075 
	C493.066132,731.004578 494.754730,731.618835 494.690308,721.753784 
	C494.609924,709.444336 494.789215,697.132141 494.604980,684.824951 
	C494.546661,680.927673 495.837372,679.248962 499.774292,679.662476 
	C501.419678,679.835327 503.104797,679.786621 504.760315,679.672058 
	C507.627991,679.473633 509.649872,680.280579 509.611084,684.178955 
	C516.534973,679.562378 523.440186,677.421082 531.217834,679.471924 
	C540.078674,681.808228 545.075195,687.480347 546.379578,696.525330 
	C547.622375,705.143799 547.016968,713.791260 547.168091,722.913757 
z"/>
<path fill="#000000" opacity="1.000000" stroke="none" 
	d="
M408.023499,706.706238 
	C408.069672,698.947754 408.149384,691.634583 408.069122,684.323120 
	C408.032898,681.024475 409.196381,679.510071 412.732758,679.585022 
	C425.118317,679.847534 423.216827,678.380066 423.318268,689.725098 
	C423.425385,701.701782 423.185272,713.683716 423.441650,725.655945 
	C423.536835,730.101196 421.972015,731.911743 417.674164,731.183594 
	C414.283905,730.609192 409.528442,733.442261 408.350403,727.128662 
	C402.303802,730.858215 396.264740,733.268677 389.277069,731.705261 
	C379.273987,729.467163 373.157654,722.513611 372.809784,711.989868 
	C372.502136,702.684265 372.810303,693.359680 372.714111,684.044922 
	C372.681305,680.867554 373.953003,679.710205 377.133667,679.573486 
	C388.142700,679.100281 388.135956,679.004272 388.143433,689.994629 
	C388.147034,695.317993 388.124359,700.641724 388.181732,705.964539 
	C388.267578,713.926086 391.070221,717.690369 397.062531,718.015381 
	C403.409058,718.359558 406.924255,714.865662 408.023499,706.706238 
z"/>
<path fill="#000000" opacity="1.000000" stroke="none" 
	d="
M725.978882,665.750122 
	C739.706970,665.887573 738.000977,664.103638 738.137146,677.490112 
	C738.240479,687.641174 738.248108,697.794861 738.146667,707.945801 
	C738.047485,717.871887 735.351318,726.430908 725.120239,730.540405 
	C715.280823,734.492493 701.918640,731.862305 694.823364,724.844360 
	C692.654785,722.699524 692.012817,720.935303 694.476257,718.619446 
	C696.637695,716.587402 697.971619,713.756653 700.579163,712.047241 
	C703.169373,712.416687 704.194031,714.851807 706.057251,716.141968 
	C709.732117,718.686707 713.620300,719.765320 717.797119,717.920044 
	C722.111328,716.014160 722.753174,712.123230 722.699158,707.874817 
	C722.597534,699.887573 722.528748,691.894653 722.729858,683.911255 
	C722.823059,680.209900 721.421936,678.791199 717.800781,678.904053 
	C712.979736,679.054382 708.149353,678.878296 703.325500,678.972534 
	C698.476196,679.067261 698.675171,675.853882 698.884460,672.527954 
	C699.085266,669.338318 698.053406,665.550232 703.516602,665.704468 
	C710.833496,665.911072 718.160706,665.752808 725.978882,665.750122 
z"/>
<path fill="#000000" opacity="1.000000" stroke="none" 
	d="
M591.013794,729.012878 
	C586.808899,731.446411 582.523682,732.250183 578.192871,731.901855 
	C566.742737,730.980835 561.226074,725.013123 560.858826,713.412659 
	C560.695618,708.257507 560.717529,703.093018 560.799255,697.935059 
	C560.844055,695.102051 560.377625,692.999817 556.884583,692.963623 
	C553.232727,692.925842 552.574219,690.458801 552.849609,687.475220 
	C553.116150,684.587585 551.622131,680.704529 556.754395,680.460938 
	C559.944336,680.309570 560.864441,678.387695 560.762634,675.406006 
	C560.475281,666.987549 560.794312,667.730164 568.794861,667.688904 
	C569.959839,667.682861 571.130127,667.770691 572.289062,667.688782 
	C575.312927,667.475037 576.284973,668.906311 576.392700,671.838562 
	C576.684082,679.772522 576.793335,679.883057 584.407593,680.083130 
	C587.856201,680.173828 589.830017,681.162048 589.356323,685.004272 
	C589.076721,687.271545 589.807190,689.641846 588.777039,691.787720 
	C588.392212,691.991760 588.108337,692.270935 587.818237,692.277527 
	C575.506714,692.557739 576.344360,692.080872 576.324951,704.394348 
	C576.321777,706.391663 576.294434,708.389709 576.339966,710.386108 
	C576.501282,717.460999 578.620667,719.370911 585.543762,718.176453 
	C587.817993,717.784058 589.175354,718.224060 589.685486,720.387695 
	C590.337769,723.154358 593.082336,725.529175 591.013794,729.012878 
z"/>
<path fill="#000000" opacity="1.000000" stroke="none" 
	d="
M345.625732,726.837891 
	C345.610718,706.239136 345.734100,686.121399 345.487213,666.008179 
	C345.433990,661.670166 346.925140,660.645935 350.912750,660.673767 
	C360.361084,660.739807 360.069824,660.590698 360.457611,670.172302 
	C361.157501,687.466614 360.911987,704.760071 360.974731,722.054932 
	C361.008820,731.444641 361.024536,731.453369 351.434021,731.286804 
	C348.650574,731.238403 345.387573,731.826294 345.625732,726.837891 
z"/>
<path fill="#000000" opacity="1.000000" stroke="none" 
	d="
M406.998352,483.664551 
	C409.985260,483.669159 412.480804,483.683197 414.976318,483.678864 
	C417.219604,483.674957 419.512878,483.754364 420.080719,486.524811 
	C420.627197,489.191040 419.719696,491.459290 417.455902,493.062988 
	C416.038025,494.067474 414.384460,494.251434 412.693115,494.243622 
	C403.210266,494.199738 393.726929,494.206055 384.244781,494.101135 
	C380.975525,494.064972 377.875824,493.508240 377.000031,488.885681 
	C386.516205,485.200531 396.322601,483.472717 406.998352,483.664551 
z"/>
<path fill="#000000" opacity="1.000000" stroke="none" 
	d="
M553.507812,760.393433 
	C552.792603,756.895264 550.283508,754.153931 551.506897,749.722473 
	C557.569519,753.852112 556.235352,761.048889 560.000488,765.964661 
	C561.875977,763.981934 561.812622,761.177368 562.989807,758.996460 
	C564.552917,756.100464 563.698059,750.592773 567.749207,750.709229 
	C571.589355,750.819519 570.907715,756.238403 572.349182,759.243164 
	C573.413635,761.461975 574.117493,763.853760 575.106506,766.501587 
	C579.119324,761.677063 577.519592,754.244995 583.537292,750.930359 
	C582.421082,758.495728 580.557739,765.802246 577.137390,772.523926 
	C575.814758,775.123047 573.713684,773.911743 572.832947,771.562744 
	C571.212830,767.241699 569.764893,762.856079 568.024597,757.864807 
	C565.045959,762.182739 564.485901,766.874207 562.492371,770.924744 
	C561.905884,772.116455 561.695984,773.573730 559.999939,773.611267 
	C558.350037,773.647705 557.767212,772.361511 557.305664,771.094543 
	C556.055481,767.662415 554.857300,764.211365 553.507812,760.393433 
z"/>
<path fill="#000000" opacity="1.000000" stroke="none" 
	d="
M411.274414,766.254272 
	C411.302338,770.902161 408.944794,772.982971 404.959808,773.561707 
	C403.812592,773.728271 402.663086,773.926514 401.508240,773.985901 
	C392.011078,774.474548 391.785614,774.253174 391.792450,764.695312 
	C391.794800,761.376343 391.959351,758.050049 391.788879,754.740479 
	C391.609467,751.256531 393.279816,749.957825 396.518158,749.928284 
	C399.672455,749.899597 402.829987,749.692932 405.885559,750.741516 
	C408.941284,751.790283 411.150452,754.195923 410.088104,757.088196 
	C408.814606,760.555298 410.319611,763.025330 411.274414,766.254272 
M395.537506,767.394836 
	C397.472076,770.534119 404.974823,771.070801 406.872894,768.226685 
	C407.503143,767.282288 407.567688,766.345764 406.933899,765.458130 
	C404.939545,762.665039 401.944458,763.422302 399.185028,763.342407 
	C396.852509,763.274780 395.240814,763.961182 395.537506,767.394836 
M396.092346,755.383362 
	C396.020355,756.799927 395.163025,758.793335 396.925751,759.326416 
	C399.560242,760.123169 402.462341,760.445496 404.994049,758.736877 
	C405.986359,758.067261 406.576569,756.934082 405.860565,755.726074 
	C404.343781,753.167175 401.805664,753.286804 399.300659,753.404053 
	C398.143921,753.458191 396.961273,753.448242 396.092346,755.383362 
z"/>
<path fill="#000000" opacity="1.000000" stroke="none" 
	d="
M669.677124,772.244995 
	C665.183289,773.730530 661.474304,773.087036 658.607849,769.540344 
	C656.113281,766.453735 656.164795,763.054688 658.152222,759.761902 
	C660.544861,755.797546 664.330017,754.689575 668.530762,755.876770 
	C670.592041,756.459412 672.438416,755.315979 675.094360,756.128418 
	C675.405640,761.988647 676.092407,768.136475 674.756653,774.066284 
	C673.228333,780.850647 663.852966,782.170898 658.090637,776.584412 
	C659.533813,773.589539 661.789734,775.927917 663.616516,775.764954 
	C666.233582,775.531494 670.150574,777.569946 669.677124,772.244995 
M671.459167,765.062317 
	C671.470459,764.410645 671.644226,763.709839 671.464905,763.115723 
	C670.672729,760.490540 668.812866,758.764099 666.125671,758.766602 
	C663.419250,758.769104 661.611267,760.611877 660.754150,763.149170 
	C659.945557,765.542847 661.094543,767.337830 663.006165,768.606140 
	C665.698425,770.392334 668.012207,769.291626 670.073181,767.327820 
	C670.536804,766.885986 670.823975,766.258911 671.459167,765.062317 
z"/>
<path fill="#000000" opacity="1.000000" stroke="none" 
	d="
M359.633728,755.434204 
	C362.325928,761.308044 365.418884,766.609924 367.347198,773.358032 
	C362.358490,772.926758 360.828888,767.544312 355.494751,767.699890 
	C350.331818,767.850464 348.749237,772.516541 344.869598,773.526917 
	C344.452454,773.184875 344.035309,772.842896 343.618164,772.500916 
	C346.919464,765.410156 349.306335,757.648926 353.841858,751.463135 
	C356.892273,747.302734 357.914734,753.148010 359.633728,755.434204 
M354.695709,764.424133 
	C356.117126,764.409180 357.647278,765.048218 359.062042,763.550476 
	C358.621979,760.931274 357.282043,758.616516 355.921448,756.013855 
	C352.197357,761.686157 352.122986,762.063660 354.695709,764.424133 
z"/>
<path fill="#000000" opacity="1.000000" stroke="none" 
	d="
M504.125000,764.213684 
	C502.352600,767.383911 499.595490,765.900269 497.298523,766.273621 
	C495.262665,766.604492 493.034149,765.615295 491.128784,767.045837 
	C493.384857,773.427185 499.599487,767.247864 502.980988,770.520020 
	C499.443756,774.354858 495.282532,775.082764 491.220123,772.787109 
	C486.957031,770.378052 485.934479,766.487000 486.978821,762.091370 
	C487.972595,757.908691 490.816162,755.679749 495.283783,755.672607 
	C500.391693,755.664429 502.485565,757.519287 504.125000,764.213684 
M499.090790,761.669739 
	C495.854034,758.145630 494.331787,758.235168 492.051880,762.197144 
	C494.328674,762.986023 496.558105,763.070374 499.090790,761.669739 
z"/>
<path fill="#000000" opacity="1.000000" stroke="none" 
	d="
M431.364746,773.313416 
	C429.210266,772.938354 427.490723,773.178223 425.662018,773.586121 
	C420.607330,774.713501 417.367065,772.396912 416.611572,767.161316 
	C416.068054,763.394653 414.901428,759.452209 418.046478,755.688843 
	C421.479828,758.703308 419.754822,762.403931 420.216278,765.585022 
	C420.572418,768.039856 421.548279,769.754944 424.180939,769.809387 
	C426.661255,769.860779 428.217255,768.492676 428.698822,766.040344 
	C428.857361,765.233154 428.754730,764.375488 428.905914,763.565979 
	C429.384735,761.002319 427.746338,756.345154 430.969696,756.425232 
	C434.865570,756.522095 432.971161,761.211426 433.050018,763.831299 
	C433.144165,766.959045 434.381927,770.446228 431.364746,773.313416 
z"/>
<path fill="#000000" opacity="1.000000" stroke="none" 
	d="
M521.144409,768.098999 
	C518.930664,774.810730 512.292847,776.059387 507.253754,771.056152 
	C508.250183,768.500977 510.258728,769.855347 511.900635,769.885071 
	C513.497498,769.914001 515.265930,770.451660 516.113647,768.319641 
	C515.243713,766.498901 513.433716,766.626526 511.904663,766.152710 
	C509.183655,765.309509 506.826721,763.792053 507.152649,760.626465 
	C507.513824,757.118469 510.081451,755.607483 513.453796,755.481750 
	C514.607300,755.438782 515.777588,755.555176 516.925049,755.710632 
	C518.392151,755.909363 520.280457,756.016907 520.090576,758.042175 
	C519.891296,760.168518 518.171875,759.726624 516.615906,759.510803 
	C514.895569,759.272278 512.947388,758.661621 511.633850,761.057739 
	C513.978699,764.384766 520.139221,762.546753 521.144409,768.098999 
z"/>
<path fill="#000000" opacity="1.000000" stroke="none" 
	d="
M535.951538,764.941772 
	C538.908203,770.097046 537.196716,773.516235 531.607117,773.979858 
	C528.560791,774.232544 525.344116,774.257385 523.447449,770.837585 
	C526.219055,767.596802 530.522644,772.491272 533.163208,768.523010 
	C530.372009,765.276917 522.618530,766.867798 523.973816,759.697876 
	C524.403931,757.422668 526.192993,755.825073 528.565857,755.752441 
	C531.464600,755.663696 534.863708,754.488831 536.868774,758.098389 
	C534.576172,761.469177 530.394287,757.321960 528.151245,760.842163 
	C529.727661,763.770935 533.403320,762.974731 535.951538,764.941772 
z"/>
<path fill="#000000" opacity="1.000000" stroke="none" 
	d="
M439.237427,773.093933 
	C437.883301,772.344055 436.693665,771.785156 437.326019,770.308044 
	C437.806610,769.185425 438.817719,769.256165 439.863098,769.419556 
	C442.222992,769.788452 444.688812,770.945312 447.036652,768.559509 
	C445.504456,766.374634 442.925171,766.636353 440.955566,765.711426 
	C438.723969,764.663269 436.791199,763.264954 437.145630,760.523376 
	C437.505981,757.736084 439.426788,756.146545 442.186768,755.826477 
	C443.820587,755.637085 445.503845,755.674011 447.146423,755.818665 
	C448.618103,755.948242 450.429230,756.192749 450.074402,758.291077 
	C449.778076,760.043884 448.314209,759.791321 446.896057,759.563965 
	C445.041809,759.266785 442.936615,758.506592 441.753815,760.899902 
	C442.345184,763.134460 444.378510,762.857910 445.819733,763.267761 
	C448.928101,764.151672 451.729919,765.290100 451.114471,769.173157 
	C450.494995,773.081665 447.224243,773.804626 443.981140,774.006287 
	C442.545929,774.095459 441.068634,773.507446 439.237427,773.093933 
z"/>
<path fill="#000000" opacity="1.000000" stroke="none" 
	d="
M648.689575,763.617188 
	C648.250916,760.472351 646.734131,758.929199 643.914429,759.401611 
	C641.117188,759.870300 639.656738,761.818787 639.409424,764.595398 
	C639.277466,766.075623 639.409973,767.577820 639.321167,769.064026 
	C639.236572,770.479614 639.603088,772.053833 638.387817,773.095032 
	C636.306946,773.408447 635.895752,772.151550 635.831604,770.741272 
	C635.726318,768.425842 635.611145,766.095154 635.762329,763.788086 
	C635.928955,761.245544 634.506714,757.154541 636.995667,756.542725 
	C640.403870,755.705017 644.332886,754.359802 648.063660,756.052002 
	C652.120911,757.892273 652.708374,761.490662 652.228271,765.263733 
	C651.889893,767.923462 653.927612,772.664185 650.404724,772.742737 
	C647.246399,772.813171 649.379089,768.053833 648.748535,765.518311 
	C648.631775,765.048706 648.719360,764.528259 648.689575,763.617188 
z"/>
<path fill="#000000" opacity="1.000000" stroke="none" 
	d="
M478.638306,767.142700 
	C478.477173,765.073242 478.583527,763.353455 478.086487,761.830688 
	C477.460632,759.913330 475.819489,758.981079 473.750610,759.335876 
	C471.405426,759.737976 469.739380,761.123718 469.454010,763.525330 
	C469.162048,765.982422 469.274841,768.485901 469.160522,770.966675 
	C469.112701,772.003906 468.817352,773.035339 467.553345,773.093933 
	C466.300873,773.151855 465.823364,772.211121 465.814850,771.142883 
	C465.775787,766.237000 465.797638,761.330566 465.797638,756.996094 
	C467.433899,755.786621 468.430084,756.166443 469.405060,756.132751 
	C481.385468,755.719727 482.969055,757.353149 482.261383,769.626099 
	C482.181427,771.013000 482.717590,773.123718 480.674927,773.252502 
	C478.119202,773.413635 478.866150,771.065125 478.668121,769.566284 
	C478.581970,768.914185 478.643433,768.242676 478.638306,767.142700 
z"/>
<path fill="#000000" opacity="1.000000" stroke="none" 
	d="
M616.289368,760.999512 
	C616.244141,763.033264 616.238342,764.691956 616.229614,766.350647 
	C616.218445,768.477417 616.317749,770.477112 619.340393,770.186523 
	C620.473206,770.077515 621.354065,770.653931 621.377686,771.839050 
	C621.406799,773.298645 620.200684,773.824341 619.042969,773.965454 
	C615.834106,774.356628 613.398376,773.243225 612.828186,769.803406 
	C612.478027,767.690979 612.356628,765.484741 612.535278,763.354431 
	C612.764221,760.624634 612.057556,758.512939 608.965149,757.450500 
	C610.972473,755.166748 612.435974,753.501709 614.158691,751.541809 
	C616.205566,753.840027 617.860107,756.255127 620.899170,756.234253 
	C621.185181,760.074463 616.351135,757.581299 616.289368,760.999512 
z"/>
<path fill="#000000" opacity="1.000000" stroke="none" 
	d="
M374.948700,765.814209 
	C374.821899,768.680969 375.464691,771.248535 373.802124,773.228882 
	C371.315369,773.315979 370.947723,771.816040 370.928162,770.263550 
	C370.858826,764.765686 370.862793,759.266357 370.900177,753.768005 
	C370.909149,752.449951 370.958740,750.782043 372.677368,750.660706 
	C374.800354,750.510925 374.874725,752.380676 374.908356,753.847595 
	C374.996185,757.678162 374.942291,761.512024 374.948700,765.814209 
z"/>
<path fill="#000000" opacity="1.000000" stroke="none" 
	d="
M590.288452,755.980591 
	C592.959656,757.186462 596.216248,753.804138 597.569397,756.476257 
	C599.308228,759.910095 594.510742,759.379517 593.332764,761.405518 
	C592.038513,763.631714 592.453064,765.884216 592.189636,768.148071 
	C591.965210,770.076721 593.036377,772.643311 589.196228,773.673096 
	C588.659058,767.601624 587.349670,761.826355 590.288452,755.980591 
z"/>
<path fill="#000000" opacity="1.000000" stroke="none" 
	d="
M630.099915,770.443970 
	C629.909668,772.032776 629.808350,773.338013 628.285706,773.432861 
	C626.872253,773.520874 626.085876,772.495422 626.063660,771.251160 
	C625.983887,766.779663 626.013550,762.304871 626.096985,757.833008 
	C626.115906,756.819153 626.632263,755.842468 627.860107,755.795471 
	C629.371460,755.737610 629.922058,756.896179 629.962463,758.076172 
	C630.098816,762.052551 630.079590,766.034302 630.099915,770.443970 
z"/>
<path fill="#000000" opacity="1.000000" stroke="none" 
	d="
M606.049500,763.159180 
	C605.976440,766.251404 605.977478,768.888123 605.822754,771.515625 
	C605.762146,772.544312 605.194092,773.410400 603.934814,773.334656 
	C603.010132,773.279053 602.272827,772.713135 602.199158,771.861145 
	C601.728882,766.421448 601.156006,760.957642 602.635376,755.168030 
	C607.069336,757.031738 605.742249,760.172729 606.049500,763.159180 
z"/>
<path fill="#000000" opacity="1.000000" stroke="none" 
	d="
M455.685394,761.188232 
	C455.912506,759.042358 455.151550,756.962219 458.543518,755.771545 
	C459.829926,761.313354 459.357697,766.719849 458.915527,772.102844 
	C458.883850,772.488831 457.971222,773.089966 457.465881,773.092346 
	C456.245667,773.098083 455.837463,772.106201 455.811676,771.051270 
	C455.735168,767.919556 455.720734,764.786316 455.685394,761.188232 
z"/>
</svg>