<svg version="1.1" id="Layer_1" xmlns="http://www.w3.org/2000/svg" xmlns:xlink="http://www.w3.org/1999/xlink" x="0px" y="0px"
	 width="100%" viewBox="0 0 1024 1024" enable-background="new 0 0 1024 1024" xml:space="preserve">
<path fill="#000000" opacity="1.000000" stroke="none" 
	d="
M573.318970,585.669434 
	C578.344177,587.283936 583.088745,587.836792 587.972351,587.781311 
	C592.704041,587.727600 597.202881,586.821960 601.639526,585.260010 
	C606.175781,583.663025 610.281860,581.150146 614.914734,578.727844 
	C615.033325,579.925964 615.331787,580.640259 615.119629,581.136230 
	C610.509583,591.914734 605.184631,602.264465 596.574524,610.507751 
	C582.321411,624.153687 562.910461,625.653015 543.461121,614.782654 
	C532.737183,608.789001 523.563599,600.833008 514.771362,592.398560 
	C501.294739,579.470337 487.830231,566.549011 471.931763,556.507568 
	C451.189514,543.406677 428.912872,535.528137 404.049957,536.289734 
	C387.508606,536.796387 372.315918,541.647400 358.323181,550.411804 
	C357.128418,551.160156 356.200256,552.588989 354.054291,552.080994 
	C355.449615,547.618347 358.510101,544.318237 361.496490,541.205627 
	C382.442108,519.375122 408.230774,510.137756 438.226990,512.463013 
	C444.020203,512.912109 448.707581,512.493286 453.521210,508.032013 
	C473.434418,489.576416 501.770935,487.062103 527.936707,500.768860 
	C532.493896,503.156128 536.837219,505.951904 541.289917,508.565216 
	C543.703674,507.662994 544.198486,505.353119 545.106689,503.510315 
	C552.090942,489.338318 559.144775,486.132568 577.690735,488.165222 
	C586.718323,489.154633 592.963745,494.122894 596.425659,502.661530 
	C597.894958,506.285553 599.225403,510.063568 602.506226,514.161194 
	C617.935547,485.930969 633.931641,458.908478 657.288391,437.098083 
	C653.216064,432.680878 647.680786,432.183197 643.265564,427.597382 
	C663.364319,423.317810 682.610535,419.219788 702.990540,414.880371 
	C700.914673,433.176025 698.979553,450.231445 696.923523,468.352844 
	C691.578369,464.981812 689.435852,459.663055 684.603088,456.683594 
	C678.574280,461.634674 673.541443,467.604889 668.542603,473.526672 
	C656.240906,488.099426 645.986694,504.080475 637.376160,521.072449 
	C635.137512,525.490173 632.112671,528.549683 627.760559,530.707092 
	C613.823669,537.616089 599.630188,538.007324 585.118591,532.799072 
	C581.631348,531.547424 579.280029,529.312317 577.649414,525.926025 
	C575.871399,522.233826 574.615601,518.221802 571.686523,514.552795 
	C568.570190,517.824402 567.181091,521.706787 565.730225,525.457886 
	C564.982422,527.391296 567.045349,528.343628 568.322571,529.283508 
	C588.819092,544.366577 610.797913,549.469666 635.134460,534.308655 
	C635.524536,534.065674 636.067871,534.068604 636.494812,533.967346 
	C637.515381,534.893799 637.107300,535.854248 636.719604,536.772522 
	C632.227783,547.412354 627.012329,557.610657 618.866882,566.023804 
	C607.585022,577.676453 593.987915,580.722595 578.552307,576.846558 
	C568.492798,574.320435 559.748779,569.183838 551.777954,562.748352 
	C537.131042,550.922607 522.921570,538.533813 507.967529,527.116089 
	C494.900848,517.139526 480.215607,510.646790 463.179016,511.219543 
	C459.647064,511.338318 456.291840,512.097839 452.848511,512.816528 
	C452.811096,514.410156 454.117493,514.319580 454.905151,514.484497 
	C484.182159,520.612549 508.461792,535.841309 530.353699,555.568298 
	C538.145996,562.590088 546.005127,569.558044 554.447144,575.827942 
	C560.116943,580.038940 566.234131,583.340454 573.318970,585.669434 
z"/>
<path fill="#000000" opacity="1.000000" stroke="none" 
	d="
M401.195343,428.285126 
	C419.597595,394.189178 448.420013,376.778564 486.157806,373.693604 
	C512.921448,371.505707 539.773865,373.217346 566.582092,372.753754 
	C567.537109,372.737244 568.498535,373.091766 569.419556,373.266266 
	C569.561340,392.121338 550.963562,411.868866 532.492554,412.291077 
	C519.503113,412.588013 506.498077,412.177765 493.506958,412.435486 
	C478.640533,412.730377 464.278961,415.057709 452.277130,424.946991 
	C447.115051,429.200409 442.655334,433.985077 440.325562,440.318726 
	C442.300812,442.369232 444.424774,441.684174 446.319031,441.689056 
	C468.645813,441.746460 490.972809,441.719910 513.299744,441.744049 
	C519.454651,441.750732 519.751709,442.199341 517.540222,448.028015 
	C516.477661,450.828583 515.297791,453.585938 514.124084,456.342834 
	C506.982452,473.117065 494.035217,480.991821 476.059387,481.044861 
	C460.730682,481.090088 445.398987,481.217560 430.074615,480.956635 
	C425.504089,480.878815 423.330627,482.411469 422.731140,486.877655 
	C422.045746,491.983948 420.925354,497.031219 420.211029,502.134552 
	C419.779236,505.219482 418.990143,507.254974 415.256104,507.691284 
	C402.938660,509.130493 391.424286,513.354492 378.919434,519.859619 
	C380.703766,487.112915 386.359802,456.823029 401.195343,428.285126 
z"/>
<path fill="#000000" opacity="1.000000" stroke="none" 
	d="
M345.546478,553.523499 
	C341.739044,556.061279 341.962860,552.556213 341.467468,550.985168 
	C338.358337,541.125366 336.125336,531.017273 334.897034,520.781677 
	C331.187500,489.870331 333.635590,459.437622 345.678009,430.558411 
	C371.825989,367.852448 417.886749,328.843353 485.490479,317.744812 
	C561.894897,305.201385 632.503906,344.147888 667.097351,403.366791 
	C669.267578,407.082031 671.485413,410.804047 672.915100,415.526581 
	C666.653870,418.082550 660.165649,419.216858 653.695862,420.132568 
	C650.628357,420.566742 649.923462,417.240021 648.700989,415.218903 
	C636.806213,395.553192 621.609741,378.956757 602.779724,365.761658 
	C572.623718,344.629974 539.036011,334.807220 502.377686,337.498138 
	C431.873077,342.673615 379.595490,391.632446 361.998749,450.738159 
	C354.130646,477.166382 353.176270,503.745514 359.146088,530.610718 
	C359.879242,533.909851 359.476379,536.465393 356.952362,539.174866 
	C352.881531,543.544800 349.463776,548.523132 345.546478,553.523499 
z"/>
<path fill="#000000" opacity="1.000000" stroke="none" 
	d="
M670.677246,502.841400 
	C670.483215,495.544891 671.275024,488.698853 670.097595,481.916779 
	C669.849060,480.484680 670.085449,479.246399 671.051025,478.209045 
	C675.021973,473.943085 679.014526,469.697021 683.016113,465.459717 
	C684.957886,463.403534 686.421631,464.444946 687.982178,466.120392 
	C692.014404,470.449341 691.677063,476.074677 692.092773,481.222168 
	C698.377319,559.037292 656.630371,624.887146 593.256470,657.831604 
	C565.411438,672.306702 535.410522,678.808289 503.970276,677.083313 
	C471.739014,675.314941 441.944550,665.731873 414.852570,647.920288 
	C410.776550,645.240479 409.421082,642.601685 411.609772,638.131226 
	C413.925934,633.400208 414.829926,628.040466 417.919586,623.197327 
	C421.552826,624.578003 424.250336,627.096558 427.234222,629.085938 
	C458.104065,649.666382 492.067230,658.362427 528.827148,653.804688 
	C589.125427,646.328308 631.642517,613.844360 657.614075,559.369812 
	C666.023010,541.732361 669.528198,522.753662 670.677246,502.841400 
z"/>
<path fill="#000000" opacity="1.000000" stroke="none" 
	d="
M407.415039,627.357361 
	C404.819885,632.777039 404.687866,638.857971 401.196411,643.620056 
	C398.443359,641.989014 398.918457,639.980103 399.027740,638.267212 
	C399.876526,624.961121 399.586578,611.641479 399.551208,598.326904 
	C399.544861,595.938293 400.517334,594.265686 401.970276,592.567688 
	C404.011169,590.182556 404.044128,587.622192 401.604950,585.518372 
	C399.477417,583.683350 396.897797,583.522522 394.773041,585.419556 
	C392.454102,587.489990 392.213745,590.518188 394.259216,592.579773 
	C397.118805,595.461914 397.111572,598.733826 397.120331,602.248779 
	C397.149384,613.904846 397.273865,625.560730 397.255859,637.216553 
	C397.252747,639.246033 398.006012,641.618042 395.739288,643.148132 
	C393.223877,642.979431 393.069000,640.940369 392.608978,639.241394 
	C388.288361,623.284119 381.153748,608.749207 370.744232,595.866638 
	C369.418152,594.225464 368.681671,592.785095 369.836487,590.502625 
	C374.596283,581.094910 377.679077,571.075806 379.630005,560.745361 
	C380.221222,557.614868 381.638580,556.583801 384.634613,556.610535 
	C393.625580,556.690796 402.618866,556.681091 411.609222,556.558044 
	C414.654144,556.516357 415.968018,557.684692 416.605988,560.725220 
	C418.728668,570.840942 421.779510,580.701294 426.238861,590.051392 
	C427.399292,592.484497 426.654541,593.991821 425.157684,595.831909 
	C417.527344,605.211548 411.751068,615.663086 407.415039,627.357361 
z"/>
<path fill="#000000" opacity="1.000000" stroke="none" 
	d="
M407.912659,553.164551 
	C400.786530,553.132446 394.147156,553.155090 387.509857,553.048401 
	C385.367798,553.013977 383.216858,552.729980 381.096100,552.394836 
	C378.973114,552.059387 377.145111,550.940247 377.087189,548.648804 
	C377.033478,546.522400 379.224518,546.319275 380.719452,545.889099 
	C391.641357,542.745789 402.820343,541.604797 414.153625,541.954895 
	C417.283875,542.051514 420.435089,542.608582 420.184723,546.820862 
	C419.957794,550.638916 417.854950,552.950378 413.875580,553.153259 
	C412.054932,553.246094 410.225647,553.169128 407.912659,553.164551 
z"/>
</svg>