<?xml version="1.0" encoding="UTF-8"?>
<svg version="1.1" xmlns="http://www.w3.org/2000/svg" width="377" height="365">
<path d="M0 0 C124.41 0 248.82 0 377 0 C377 120.45 377 240.9 377 365 C252.59 365 128.18 365 0 365 C0 244.55 0 124.1 0 0 Z " fill="none" transform="translate(0,0)"/>
<path d="M0 0 C-0.45373234 7.60725704 -0.91264618 15.21419265 -1.5 22.8125 C-1.5721875 23.74707031 -1.644375 24.68164062 -1.71875 25.64453125 C-2 28 -2 28 -3 31 C-3.21282313 32.6247656 -3.38680032 34.25480348 -3.53515625 35.88671875 C-3.66567383 37.2934082 -3.66567383 37.2934082 -3.79882812 38.72851562 C-3.9293457 40.19321289 -3.9293457 40.19321289 -4.0625 41.6875 C-4.15337891 42.67556641 -4.24425781 43.66363281 -4.33789062 44.68164062 C-4.56177679 47.12082148 -4.78235239 49.56025587 -5 52 C-5.66 52 -6.32 52 -7 52 C-9.08662701 49.47075514 -10.99567557 46.83481671 -12.9296875 44.1875 C-13.61289062 43.465625 -14.29609375 42.74375 -15 42 C-19.5509041 42 -20.42870635 42.89971584 -23.56689453 45.95947266 C-24.14294434 46.55034668 -24.71899414 47.1412207 -25.3125 47.75 C-26.22684814 48.68078369 -26.22684814 48.68078369 -27.15966797 49.63037109 C-41.48003781 64.60814124 -52.36845227 82.16990244 -62.34375 100.2265625 C-62.88044312 101.19070068 -62.88044312 101.19070068 -63.42797852 102.17431641 C-64.35956683 103.85906064 -65.27245891 105.55410696 -66.18359375 107.25 C-70.28530204 113.45989814 -76.71789617 116.6091733 -83.75927734 118.56054688 C-88.36668542 119.46415709 -93.00570915 119.48349104 -97.6875 119.5 C-99.12971924 119.50918457 -99.12971924 119.50918457 -100.60107422 119.51855469 C-107.91180239 119.39071408 -115.29288494 118.64101661 -121.390625 114.296875 C-123.61542908 111.12166917 -125.1904845 107.79070256 -126.75 104.25 C-127.06582031 103.55261719 -127.38164062 102.85523438 -127.70703125 102.13671875 C-128.47941952 100.42810227 -129.24082982 98.71453041 -130 97 C-132.18650549 99.18650549 -133.28018365 101.19141853 -134.6875 103.9375 C-135.14511719 104.81277344 -135.60273438 105.68804687 -136.07421875 106.58984375 C-137.32506002 109.08377293 -137.32506002 109.08377293 -136 112 C-122.23924631 122.44896355 -106.65936936 129.0948163 -89.14208984 127.3515625 C-80.60630504 125.95065868 -72.62437479 121.90002581 -65 118 C-68.31292508 128.94778795 -74.4402408 139.4473692 -82 148 C-82.51820313 148.62261719 -83.03640625 149.24523437 -83.5703125 149.88671875 C-89.24289374 156.20328869 -98.30232285 161.52584133 -106.86328125 162.23828125 C-131.87379414 162.77644631 -148.93542155 147.99649889 -166.890625 132.6484375 C-170.57402286 129.50191866 -174.309669 126.42307808 -178.078125 123.37890625 C-180.21624681 121.63810922 -182.323894 119.87755175 -184.421875 118.08984375 C-199.16557904 105.69338627 -215.68454194 95.76989079 -235.375 95.875 C-236.45007813 95.86919922 -236.45007813 95.86919922 -237.546875 95.86328125 C-242.44480971 95.87212229 -247.15072798 96.31037441 -252 97 C-248.94616687 89.20925526 -238.75371855 84.375837 -231.48828125 81.03125 C-230.66714844 80.6909375 -229.84601563 80.350625 -229 80 C-228.23042969 79.6803125 -227.46085937 79.360625 -226.66796875 79.03125 C-210.12479369 73.40396525 -191.2044002 76.49303117 -175.82421875 83.97265625 C-169.97724054 86.95965395 -164.42524182 90.30359093 -159 94 C-158.690625 92.7934375 -158.690625 92.7934375 -158.375 91.5625 C-155.33219935 83.67888014 -150.47012492 76.67386485 -142.73046875 72.890625 C-134.16119105 70.09549579 -123.19773459 71.42765387 -115 75 C-110.09320933 78.1053729 -108.1477438 81.90940548 -105.75 87 C-105.399375 87.7115625 -105.04875 88.423125 -104.6875 89.15625 C-103.10244966 92.42389225 -101.79677593 95.44303486 -101 99 C-100.34 99 -99.68 99 -99 99 C-98.58379395 97.91041992 -98.58379395 97.91041992 -98.15917969 96.79882812 C-88.22455463 72.81177217 -71.48320555 50.35290503 -54.078125 31.3046875 C-52.18266732 29.20258218 -50.36643451 27.05548394 -48.5625 24.875 C-47.716875 23.92625 -46.87125 22.9775 -46 22 C-45.34 22 -44.68 22 -44 22 C-44 21.01 -44 20.02 -44 19 C-44.72574219 18.88785156 -45.45148438 18.77570313 -46.19921875 18.66015625 C-49.12563993 17.97038613 -51.22287809 16.94489186 -53.8125 15.4375 C-54.60269531 14.98246094 -55.39289063 14.52742188 -56.20703125 14.05859375 C-56.79871094 13.70925781 -57.39039063 13.35992187 -58 13 C-58 12.34 -58 11.68 -58 11 C-57.35901367 10.87995605 -56.71802734 10.75991211 -56.05761719 10.63623047 C-41.65226298 7.92790158 -27.30060227 5.05874033 -12.99121094 1.88037109 C-11.87262695 1.63496582 -10.75404297 1.38956055 -9.6015625 1.13671875 C-8.61494629 0.91717529 -7.62833008 0.69763184 -6.61181641 0.47143555 C-4 0 -4 0 0 0 Z " fill="#51B0E4" transform="translate(372,103)"/>
<path d="M0 0 C1.97967892 0.00373634 3.9593597 0.00658038 5.93904114 0.00857544 C11.11586736 0.01616299 16.29257899 0.03576889 21.46936035 0.0579834 C26.7653651 0.07854764 32.0613886 0.08759965 37.35742188 0.09765625 C47.72400832 0.11901994 58.0905102 0.15309609 68.45703125 0.1953125 C66.00725919 13.17896811 59.43351352 25.58155476 48.45703125 33.1953125 C36.27212542 40.51267587 21.81676011 38.83963906 8.14453125 38.7578125 C-24.70547404 38.4203313 -24.70547404 38.4203313 -52.75390625 54.19140625 C-56.46515457 58.34832849 -59.06232537 63.23402575 -61.54296875 68.1953125 C-35.47296875 68.1953125 -9.40296875 68.1953125 17.45703125 68.1953125 C16.32958976 76.08740293 16.32958976 76.08740293 14.85546875 79.09765625 C14.53400879 79.75660889 14.21254883 80.41556152 13.88134766 81.09448242 C13.53507324 81.76713135 13.18879883 82.43978027 12.83203125 83.1328125 C12.47157715 83.83575439 12.11112305 84.53869629 11.73974609 85.26293945 C6.12269682 95.90323565 -0.05318574 100.98647138 -11.30264282 105.2383728 C-14.66618811 106.23170189 -17.41662344 106.47131643 -20.91552734 106.51416016 C-22.7767775 106.54396469 -22.7767775 106.54396469 -24.67562866 106.57437134 C-26.01421938 106.58624483 -27.35281199 106.59790786 -28.69140625 106.609375 C-30.0728977 106.62810341 -31.45437791 106.64767806 -32.83584595 106.6680603 C-36.45576325 106.71921111 -40.07571757 106.75892747 -43.69580078 106.79620361 C-47.3962507 106.83635077 -51.0965489 106.88739402 -54.796875 106.9375 C-62.04546852 107.0340571 -69.29413596 107.11852584 -76.54296875 107.1953125 C-77.19167214 110.2155548 -77.83701031 113.23645229 -78.48046875 116.2578125 C-78.75407227 117.52915039 -78.75407227 117.52915039 -79.03320312 118.82617188 C-80.04790352 123.60448826 -80.91843125 128.35021634 -81.54296875 133.1953125 C-82.58453125 133.34226563 -83.62609375 133.48921875 -84.69921875 133.640625 C-93.97025277 135.05411167 -102.36174356 137.27623646 -111.0546875 140.79296875 C-114.18878895 142.05292667 -117.32789381 143.16313022 -120.54296875 144.1953125 C-121.24329211 130.79190144 -119.23735419 118.29582769 -116.54296875 105.1953125 C-116.35573242 104.27991699 -116.16849609 103.36452148 -115.97558594 102.42138672 C-109.31254491 70.61946294 -95.57793209 36.45453369 -67.30859375 17.875 C-58.57839103 12.57275824 -49.99235343 8.08444986 -40.29296875 4.8203125 C-39.58527344 4.58175537 -38.87757813 4.34319824 -38.1484375 4.09741211 C-25.4479077 0.05248048 -13.19863645 -0.07355527 0 0 Z " fill="#263B78" transform="translate(170.54296875,60.8046875)"/>
<path d="M0 0 C1.31629395 0.00604248 2.63258789 0.01208496 3.98876953 0.01831055 C13.20062207 0.1122858 22.04175151 0.64468315 31.125 2.25 C33.00832031 2.52457031 33.00832031 2.52457031 34.9296875 2.8046875 C70.00705574 8.43095844 101.76128556 26.99166366 127.125 51.25 C128.0634375 52.13558594 129.001875 53.02117188 129.96875 53.93359375 C142.51078943 66.07048303 154.13960574 81.15322193 161.125 97.25 C161.125 98.24 161.125 99.23 161.125 100.25 C158.18949875 100.94721895 155.25212524 101.63309005 152.3125 102.3125 C151.47912109 102.51166016 150.64574219 102.71082031 149.78710938 102.91601562 C148.98466797 103.09970703 148.18222656 103.28339844 147.35546875 103.47265625 C146.61707764 103.64547119 145.87868652 103.81828613 145.11791992 103.99633789 C143.125 104.25 143.125 104.25 140.125 103.25 C138.43359375 100.765625 138.43359375 100.765625 136.5625 97.5 C120.04908957 69.65385692 95.49679569 48.56081378 66.125 35.25 C65.51188965 34.97172363 64.8987793 34.69344727 64.26708984 34.40673828 C53.88391961 29.78548846 43.16737124 26.81938039 32.125 24.25 C31.37847168 24.05946045 30.63194336 23.8689209 29.86279297 23.67260742 C22.88380227 22.04090177 16.04057879 21.97752989 8.89501953 22.04418945 C6.89232349 22.06234297 4.88949683 22.06347233 2.88671875 22.06445312 C-41.59658127 22.26166973 -79.03389259 38.33781148 -111.0625 69.125 C-131.1121948 89.72533262 -144.86310228 116.23253909 -151.625 144 C-151.83600342 144.86326904 -152.04700684 145.72653809 -152.2644043 146.6159668 C-154.82143261 157.6005911 -155.10791106 168.43673154 -155.125 179.6875 C-155.12733643 180.39154968 -155.12967285 181.09559937 -155.13208008 181.82098389 C-155.14472466 191.94038752 -154.53343007 201.6920598 -152.53125 211.6328125 C-151.92067371 214.99825084 -151.5173095 217.84949033 -151.875 221.25 C-153.16015625 223.015625 -153.16015625 223.015625 -154.9375 224.5 C-158.82555419 228.01663438 -161.54228223 231.9290535 -164.39453125 236.30859375 C-164.88308594 236.94925781 -165.37164062 237.58992187 -165.875 238.25 C-166.535 238.25 -167.195 238.25 -167.875 238.25 C-178.75759948 207.15685864 -180.5299006 172.27004364 -172.875 140.25 C-172.52060394 138.63937337 -172.16643417 137.02869694 -171.8125 135.41796875 C-164.85563422 105.30454575 -148.40865716 77.23923524 -126.875 55.25 C-125.91995404 54.24537964 -124.96553702 53.24016104 -124.01171875 52.234375 C-92.17041805 19.07077879 -45.90861098 -0.34012951 0 0 Z " fill="#273B77" transform="translate(180.875,2.75)"/>
<path d="M0 0 C4.47022139 4.11260368 4.85708405 10.76493176 5.22387695 16.5012207 C5.34302578 20.64910556 5.38581634 24.78825849 5.375 28.9375 C5.37478851 29.68344421 5.37457703 30.42938843 5.37435913 31.19793701 C5.3186989 50.97446477 3.00781846 70.408379 -4 89 C-4.27827637 89.76441406 -4.55655273 90.52882813 -4.84326172 91.31640625 C-17.60603319 126.16035995 -40.00488204 156.09605066 -70 178 C-70.56348145 178.41846191 -71.12696289 178.83692383 -71.70751953 179.26806641 C-89.67377828 192.47354997 -110.62950146 201.03248562 -132 207 C-132.84691406 207.2386377 -133.69382813 207.47727539 -134.56640625 207.72314453 C-147.52750048 211.17139127 -160.55186191 211.35618931 -173.875 211.375 C-174.70266876 211.37717529 -175.53033752 211.37935059 -176.38308716 211.3815918 C-190.61176215 211.37735702 -204.72208006 210.61000456 -218.5 206.75 C-219.29567383 206.53093994 -220.09134766 206.31187988 -220.91113281 206.08618164 C-240.60869239 200.52144428 -259.18810582 191.72234068 -276 180 C-275.55355616 172.41045469 -272.88499438 165.98360263 -270 159 C-265.81830824 159.58277856 -262.90042261 162.05173548 -259.5625 164.4375 C-247.4787435 172.73641905 -234.13250437 178.9549706 -220.1875 183.4375 C-219.49688477 183.66018555 -218.80626953 183.88287109 -218.09472656 184.11230469 C-204.69830731 188.1281366 -191.65934022 189.51647794 -177.74682617 189.44604492 C-175.19953214 189.43754017 -172.65449644 189.46642599 -170.10742188 189.49804688 C-154.18343168 189.56733578 -139.19901771 186.53744856 -124.125 181.4375 C-123.12742676 181.10089355 -122.12985352 180.76428711 -121.10205078 180.41748047 C-105.10648186 174.79208105 -90.23925896 166.58749023 -77 156 C-76.41669922 155.53480957 -75.83339844 155.06961914 -75.23242188 154.59033203 C-44.24235803 129.5759682 -22.17094503 92.51478989 -17.4296875 52.62109375 C-17.00075116 48.10747491 -16.93860308 43.61606582 -16.9296875 39.0859375 C-16.91458344 36.91926385 -16.89822085 34.7526018 -16.88183594 32.5859375 C-16.87726756 31.10839256 -16.88350542 29.63077584 -16.90039062 28.15332031 C-17.03583205 14.23363518 -17.03583205 14.23363518 -12.6484375 9.1953125 C-11.45712257 8.10250588 -10.24151115 7.0354263 -9 6 C-7.91118389 4.83844858 -6.82749293 3.6720628 -5.75 2.5 C-3 0 -3 0 0 0 Z " fill="#263B77" transform="translate(357,152)"/>
<path d="M0 0 C0.74765625 0.20979492 1.4953125 0.41958984 2.265625 0.63574219 C23.68188685 6.90839731 43.00199092 17.63248292 60 32 C60.64372559 32.54301758 61.28745117 33.08603516 61.95068359 33.64550781 C66.95447393 37.89336614 71.88582998 42.22247397 76.78417969 46.59130859 C90.72623078 59.00688581 105.72687291 71.412172 125.25 71.375 C126.50526489 71.37367065 126.50526489 71.37367065 127.78588867 71.37231445 C136.04096709 71.2149303 142.26591595 68.89979715 149.5625 65.1875 C150.366875 64.795625 151.17125 64.40375 152 64 C152.66 64.33 153.32 64.66 154 65 C146.08896129 81.98609946 137.77237017 96.20128512 120 104 C108.35416638 107.88194454 94.49286482 104.70887419 83.8828125 99.45703125 C69.9146275 91.69100473 58.56760099 80.36307773 47 69.5 C44.93471172 67.56527865 42.86923197 65.63076191 40.80371094 63.69628906 C39.32232083 62.30312468 37.85112025 60.89913313 36.3828125 59.4921875 C11.81872977 36.45804763 -19.6659681 20.58029645 -53.6875 20.625 C-54.35263611 20.62521149 -55.01777222 20.62542297 -55.70306396 20.62564087 C-65.78947832 20.65768389 -74.54546253 21.28137729 -84 25 C-85.56621094 25.56074219 -85.56621094 25.56074219 -87.1640625 26.1328125 C-94.35691379 28.88248477 -100.6548846 32.66583653 -107 37 C-105.54265768 32.370795 -102.88835946 29.22751098 -99.625 25.75 C-99.0897168 25.17934814 -98.55443359 24.60869629 -98.00292969 24.02075195 C-72.76581447 -2.25497331 -34.70905473 -9.79529573 0 0 Z " fill="#2F61A3" transform="translate(131,203)"/>
<path d="M0 0 C3.37916988 2.33255376 6.71863241 4.71779404 10.0480957 7.12060547 C29.43238249 21.09354215 29.43238249 21.09354215 51.0480957 31.12060547 C51.72485352 31.41837891 52.40161133 31.71615234 53.09887695 32.02294922 C63.82773619 36.40743595 77.37848858 34.9912374 88.0480957 31.12060547 C95.39173226 28.00873948 101.90914068 24.21232699 108.0480957 19.12060547 C109.0480957 22.12060547 109.0480957 22.12060547 107.8605957 24.94091797 C104.09954694 31.7983474 100.20115052 38.19982691 95.0480957 44.12060547 C94.52860352 44.74580078 94.00911133 45.37099609 93.47387695 46.01513672 C87.79640211 52.32496954 78.74488313 57.64652084 70.18481445 58.35888672 C45.17430156 58.89705178 28.11267415 44.11710436 10.1574707 28.76904297 C6.47407284 25.62252413 2.73842671 22.54368355 -1.0300293 19.49951172 C-3.16815111 17.75871468 -5.2757983 15.99815722 -7.3737793 14.21044922 C-22.11748333 1.81399174 -38.63644624 -8.10950374 -58.3269043 -8.00439453 C-59.04362305 -8.00826172 -59.7603418 -8.01212891 -60.4987793 -8.01611328 C-65.396714 -8.00727224 -70.10263227 -7.56902012 -74.9519043 -6.87939453 C-73.93418753 -9.95224258 -73.10622012 -10.79574259 -70.21362305 -12.36376953 C-45.32481451 -21.17685583 -21.26832455 -14.33248905 0 0 Z " fill="#4286C2" transform="translate(194.951904296875,206.87939453125)"/>
<path d="M0 0 C1.47583955 0.0001591 2.95168467 0.00585225 4.42749023 0.01586914 C5.20293686 0.01728409 5.97838348 0.01869904 6.77732849 0.02015686 C9.26361893 0.02577194 11.74982059 0.03832693 14.23608398 0.05102539 C15.91772331 0.05603845 17.59936405 0.06060169 19.28100586 0.06469727 C23.41189965 0.07574626 27.54272674 0.09302094 31.67358398 0.11352539 C31.91939209 1.34159912 32.1652002 2.56967285 32.41845703 3.83496094 C34.27635436 13.03654437 36.68006354 21.33829925 40.59936523 29.87915039 C41.82019251 33.55495034 41.79408276 35.43115894 40.67358398 39.11352539 C39.32592773 41.14086914 39.32592773 41.14086914 37.61108398 43.05102539 C27.52804706 55.37013621 21.88404857 70.94900661 17.67358398 86.11352539 C17.01358398 86.11352539 16.35358398 86.11352539 15.67358398 86.11352539 C15.5976221 79.33259239 15.54502149 72.55176879 15.50878906 65.77050781 C15.49368722 63.46284891 15.47320429 61.15521878 15.44726562 58.84765625 C15.41094423 55.5338634 15.39387162 52.22044947 15.38061523 48.90649414 C15.36513138 47.87203659 15.34964752 46.83757904 15.33369446 45.77177429 C15.33346786 44.81100479 15.33324127 43.85023529 15.33300781 42.86035156 C15.32634598 42.01429855 15.31968414 41.16824554 15.31282043 40.29655457 C15.75633393 37.61279424 16.78156825 36.97261895 18.67358398 35.11352539 C18.43881199 31.46810694 18.43881199 31.46810694 17.67358398 28.11352539 C13.6027919 26.962694 13.6027919 26.962694 9.79858398 28.23852539 C8.29401025 30.74614828 8.24176519 32.23473342 8.67358398 35.11352539 C9.16929398 35.56407791 9.66500397 36.01463043 10.17573547 36.47883606 C12.16552613 38.65041051 12.03758549 39.85600444 12.01416016 42.76855469 C12.01393356 43.70930344 12.01370697 44.65005219 12.01347351 45.61930847 C11.99798965 46.63189224 11.9825058 47.64447601 11.96655273 48.68774414 C11.96230789 49.72671341 11.95806305 50.76568268 11.95368958 51.83613586 C11.93688247 55.15802815 11.89922595 58.47931614 11.86108398 61.80102539 C11.8460398 64.05166768 11.83235093 66.30231946 11.82006836 68.55297852 C11.78697235 74.07336736 11.73675267 79.59340321 11.67358398 85.11352539 C11.01358398 85.11352539 10.35358398 85.11352539 9.67358398 85.11352539 C9.30233398 83.93790039 8.93108398 82.76227539 8.54858398 81.55102539 C3.47583555 66.49793934 -2.52552138 52.0859804 -13.07641602 39.98071289 C-14.32641602 38.11352539 -14.32641602 38.11352539 -14.32641602 34.11352539 C-13.73144531 32.24511719 -13.73144531 32.24511719 -12.90063477 30.31274414 C-12.5997998 29.58949951 -12.29896484 28.86625488 -11.98901367 28.12109375 C-11.66723145 27.35547119 -11.34544922 26.58984863 -11.01391602 25.80102539 C-8.05506736 18.5416969 -6.12523809 11.58116372 -4.83422852 3.85961914 C-4.14667096 0.14151941 -4.14667096 0.14151941 0 0 Z " fill="#305B9C" transform="translate(54.326416015625,243.886474609375)"/>
<path d="M0 0 C6.95656652 3.1233564 10.34772346 12.10149129 13.1953125 18.8203125 C14.50114229 22.66721646 14.50236587 24.53535769 13.0625 28.375 C10.37593224 32.53373815 7.57811851 36.85938149 4.0625 40.375 C-3.16806927 40.96766961 -3.16806927 40.96766961 -5.9609375 38.81640625 C-8.42585304 35.77179713 -10.10727512 32.52855914 -11.75 29 C-12.07419922 28.35289062 -12.39839844 27.70578125 -12.73242188 27.0390625 C-14.76920308 22.71253796 -15.34318446 19.9576574 -13.9375 15.375 C-7.05974531 0.90124408 -7.05974531 0.90124408 0 0 Z " fill="#3A77B1" transform="translate(256.9375,178.625)"/>
<path d="M0 0 C0.87954247 2.87850263 1.21654675 4.44926022 0.1003418 7.28808594 C-3.15859626 9.9443307 -6.59341877 9.49216642 -10.60546875 9.390625 C-11.44467361 9.38496521 -12.28387848 9.37930542 -13.14851379 9.37347412 C-15.82875633 9.35108406 -18.50766163 9.30088453 -21.1875 9.25 C-23.00453798 9.22993832 -24.82159692 9.21168697 -26.63867188 9.1953125 C-31.09296312 9.15121086 -35.54625485 9.08216659 -40 9 C-40.66 7.68 -41.32 6.36 -42 5 C-30.41608321 -2.72261119 -13.22215057 -0.30368897 0 0 Z " fill="#2B3E79" transform="translate(89,230)"/>
<path d="M0 0 C2.5797542 2.36829894 3.9205377 4.22799341 4.3359375 7.828125 C3.4502371 13.5542811 -1.45425489 20.42416965 -6 24 C-8.84667807 24.5749726 -11.04838397 24.28110629 -14 24 C-14.66 23.01 -15.32 22.02 -16 21 C-15.34773437 20.48953125 -14.69546875 19.9790625 -14.0234375 19.453125 C-7.18281574 13.76269628 -3.40894213 8.1897756 0 0 Z " fill="#30649D" transform="translate(267,195)"/>
<path d="M0 0 C0.70125 0.28875 1.4025 0.5775 2.125 0.875 C1.74988281 1.33648437 1.37476563 1.79796875 0.98828125 2.2734375 C-4.63673643 9.44285549 -8.7491546 16.98510106 -10.875 25.875 C-13.17677551 24.07361047 -13.85095704 22.96299229 -14.6328125 20.1015625 C-15.10267968 13.84171917 -10.96022403 8.64834796 -7.3125 3.796875 C-4.91117978 1.12040351 -3.68343411 -0.16014931 0 0 Z " fill="#2E639E" transform="translate(256.875,179.125)"/>
<path d="M0 0 C0.99 0.33 1.98 0.66 3 1 C-0.96 4.96 -4.92 8.92 -9 13 C-9.99 12.67 -10.98 12.34 -12 12 C-8.04 8.04 -4.08 4.08 0 0 Z " fill="#314882" transform="translate(96,84)"/>
<path d="M0 0 C-0.5 1.9375 -0.5 1.9375 -2 4 C-4.69658452 4.68790422 -7.2017019 4.81946464 -10 5 C-9.375 3.125 -9.375 3.125 -8 1 C-2.66666667 -1.33333333 -2.66666667 -1.33333333 0 0 Z " fill="#5188BF" transform="translate(130,195)"/>
<path d="M0 0 C1.1446875 0.3403125 1.1446875 0.3403125 2.3125 0.6875 C-0.88418988 3.3361859 -4.08236597 5.62742341 -7.6875 7.6875 C-4.79076087 -0.55706522 -4.79076087 -0.55706522 0 0 Z " fill="#4B7FB3" transform="translate(31.6875,232.3125)"/>
<path d="M0 0 C0.33 0.99 0.66 1.98 1 3 C-2.63 2.67 -6.26 2.34 -10 2 C-10 1.67 -10 1.34 -10 1 C-6.59437148 0.22157062 -3.49234244 -0.09978121 0 0 Z " fill="#CFDCE8" transform="translate(124,199)"/>
</svg>
